<svg width="30" height="32" viewBox="0 0 30 32" fill="none" xmlns="http://www.w3.org/2000/svg">
<path d="M20.9363 0C21.881 0 22.7869 0.379285 23.4549 1.05442C24.1229 1.72955 24.4981 2.64522 24.4981 3.6V28.4C24.4981 29.3548 24.1229 30.2705 23.4549 30.9456C22.7869 31.6207 21.881 32 20.9363 32H9.06368C8.11903 32 7.21308 31.6207 6.54511 30.9456C5.87715 30.2705 5.50189 29.3548 5.50189 28.4V3.6C5.50189 2.64522 5.87715 1.72955 6.54511 1.05442C7.21308 0.379285 8.11903 0 9.06368 0H20.9363ZM20.9363 2.4H9.06368C8.7488 2.4 8.44681 2.52643 8.22416 2.75147C8.0015 2.97652 7.87641 3.28174 7.87641 3.6V28.4C7.87641 29.0624 8.40831 29.6 9.06368 29.6H20.9363C21.2512 29.6 21.5532 29.4736 21.7758 29.2485C21.9985 29.0235 22.1236 28.7183 22.1236 28.4V3.6C22.1236 3.28174 21.9985 2.97652 21.7758 2.75147C21.5532 2.52643 21.2512 2.4 20.9363 2.4ZM16.9772 24.8C17.2921 24.7996 17.5942 24.9256 17.8172 25.1503C18.0401 25.3751 18.1656 25.6801 18.166 25.9984C18.1665 26.3167 18.0418 26.6221 17.8194 26.8474C17.5971 27.0727 17.2952 27.1996 16.9804 27.2L13.0228 27.2064C12.7079 27.2068 12.4058 27.0808 12.1828 26.8561C11.9599 26.6313 11.8344 26.3263 11.834 26.008C11.8335 25.6897 11.9582 25.3843 12.1806 25.159C12.4029 24.9337 12.7048 24.8068 13.0196 24.8064L16.9772 24.8ZM28.6963 9.808L28.7659 9.9536L29.6888 12.2848C29.9471 12.9377 30.0468 13.6436 29.9796 14.3435C29.9124 15.0433 29.6803 15.7167 29.3026 16.3072L29.1284 16.5584L28.891 16.8816C28.7104 17.1248 28.587 17.4063 28.5302 17.7049C28.4734 18.0035 28.4847 18.3113 28.5633 18.6048L28.6361 18.824L29.5574 21.1552C29.6678 21.4372 29.6684 21.751 29.5591 22.0335C29.4498 22.3159 29.2387 22.5461 28.9684 22.6777C28.698 22.8092 28.3884 22.8324 28.1018 22.7426C27.8152 22.6528 27.5728 22.4567 27.4235 22.1936L27.3539 22.0448L26.431 19.7152C26.1727 19.0623 26.073 18.3564 26.1402 17.6565C26.2074 16.9567 26.4395 16.2833 26.8172 15.6928L26.9914 15.4416L27.2288 15.1184C27.4094 14.8752 27.5328 14.5937 27.5896 14.2951C27.6464 13.9965 27.6351 13.6887 27.5565 13.3952L27.4837 13.176L26.5624 10.8464C26.4556 10.5779 26.4485 10.2794 26.5422 10.006C26.636 9.73262 26.8243 9.50266 27.0726 9.35851C27.3208 9.21435 27.6122 9.16572 27.8932 9.22156C28.1741 9.2774 28.4256 9.43396 28.6013 9.6624L28.6963 9.8064V9.808ZM2.57647 9.808L2.64612 9.9536L3.56902 12.2848C3.82731 12.9377 3.92703 13.6436 3.85982 14.3435C3.79262 15.0433 3.56045 15.7167 3.18276 16.3072L3.00863 16.5584L2.77118 16.8816C2.59055 17.1248 2.46716 17.4063 2.41037 17.7049C2.35359 18.0035 2.36492 18.3113 2.44349 18.6048L2.51631 18.824L3.43763 21.1552C3.54797 21.4372 3.54855 21.751 3.43927 22.0335C3.32998 22.3159 3.11893 22.5461 2.84857 22.6777C2.57821 22.8092 2.26859 22.8324 1.98198 22.7426C1.69537 22.6528 1.45304 22.4567 1.30372 22.1936L1.23407 22.0448L0.311166 19.7152C0.0528767 19.0623 -0.0468431 18.3564 0.0203612 17.6565C0.0875655 16.9567 0.319736 16.2833 0.697423 15.6928L0.871555 15.4416L1.10901 15.1184C1.28963 14.8752 1.41303 14.5937 1.46981 14.2951C1.52659 13.9965 1.51527 13.6887 1.43669 13.3952L1.36387 13.176L0.442557 10.8464C0.337126 10.5783 0.330803 10.2807 0.424745 10.0083C0.518687 9.73584 0.706606 9.50672 0.954075 9.3629C1.20154 9.21908 1.49199 9.1702 1.77222 9.2252C2.05244 9.28021 2.30368 9.43542 2.4799 9.6624L2.57647 9.8064V9.808Z" fill="#FFDD29"/>
</svg>
