<svg width="24" height="25" viewBox="0 0 24 25" fill="none" xmlns="http://www.w3.org/2000/svg">
<path fill-rule="evenodd" clip-rule="evenodd" d="M18.0989 0.718931C14.0821 -0.105529 9.91666 -0.105529 5.89988 0.718931L5.46707 0.806854C4.3372 1.03881 3.29947 1.55383 2.46917 2.29471C1.63887 3.03558 1.0485 3.97331 0.76364 5.00372C-0.254547 8.68773 -0.254547 12.5469 0.76364 16.2309C1.03529 17.2136 1.58509 18.1129 2.35728 18.8376C3.12948 19.5623 4.09662 20.0866 5.16066 20.3574L5.75433 23.6118C5.77328 23.7151 5.82206 23.8119 5.89558 23.892C5.9691 23.9722 6.06468 24.0328 6.17236 24.0675C6.28004 24.1022 6.39589 24.1098 6.50785 24.0894C6.6198 24.0691 6.72376 24.0215 6.8089 23.9517L10.2956 21.0878C12.913 21.2344 15.5399 21.0423 18.0989 20.5169L18.533 20.4289C19.6629 20.197 20.7006 19.682 21.5309 18.9411C22.3612 18.2002 22.9516 17.2625 23.2364 16.2321C24.2545 12.5481 24.2545 8.68891 23.2364 5.00489C22.9515 3.97433 22.3609 3.0365 21.5304 2.29561C20.6998 1.55472 19.6618 1.03979 18.5317 0.808026L18.0989 0.718931ZM6.97743 4.90876C6.74015 4.87705 6.49819 4.9209 6.29183 5.03303H6.27396C5.79519 5.29093 5.36366 5.61566 4.99596 5.99783C4.68955 6.32256 4.52358 6.65081 4.48017 6.96733C4.45463 7.1549 4.47251 7.34482 4.53251 7.52418L4.55549 7.5359C4.90021 8.46554 5.34961 9.36001 5.8986 10.2017C6.60648 11.384 7.47759 12.4774 8.49034 13.4549L8.52098 13.4947L8.5695 13.5276L8.59886 13.5592L8.63461 13.5874C9.70287 14.5201 10.8965 15.3238 12.1864 15.9789C13.661 16.7162 14.556 17.0644 15.0935 17.2098V17.2168C15.2506 17.2614 15.3936 17.2813 15.5378 17.2813C15.9956 17.2502 16.4289 17.0794 16.7686 16.796C17.1835 16.4583 17.5346 16.0609 17.8078 15.619V15.6108C18.0645 15.1653 17.9776 14.7456 17.6074 14.4607C16.8637 13.8641 16.0595 13.3341 15.2059 12.8781C14.6339 12.5932 14.053 12.7656 13.8181 13.054L13.3163 13.6354C13.0584 13.9238 12.5912 13.884 12.5912 13.884L12.5784 13.891C9.09167 13.0739 8.16095 9.83245 8.16095 9.83245C8.16095 9.83245 8.11754 9.39167 8.44055 9.16658L9.06869 8.70235C9.37 8.47727 9.57938 7.94504 9.25637 7.41984C8.76305 6.63529 8.18705 5.89711 7.53663 5.21591C7.39477 5.05559 7.19583 4.9464 6.97488 4.90759L6.97743 4.90876ZM12.8682 3.49965C12.6989 3.49965 12.5365 3.5614 12.4168 3.67133C12.2971 3.78125 12.2298 3.93034 12.2298 4.0858C12.2298 4.24126 12.2971 4.39035 12.4168 4.50027C12.5365 4.6102 12.6989 4.67195 12.8682 4.67195C14.4833 4.67195 15.8238 5.15612 16.8848 6.08459C17.4299 6.5922 17.8551 7.19359 18.1334 7.85243C18.413 8.51244 18.5407 9.21699 18.5075 9.92272C18.504 9.9997 18.517 10.0766 18.5458 10.1489C18.5746 10.2213 18.6187 10.2877 18.6755 10.3444C18.7902 10.4589 18.9497 10.527 19.119 10.5335C19.2883 10.54 19.4535 10.4845 19.5783 10.3792C19.703 10.2739 19.7771 10.1274 19.7842 9.97196C19.8238 9.10385 19.6669 8.23763 19.3233 7.42805C18.9782 6.61463 18.4551 5.87488 17.7861 5.25459L17.7734 5.24287C16.4571 4.08814 14.7909 3.49965 12.8682 3.49965ZM12.8248 5.42692C12.6555 5.42692 12.4931 5.48868 12.3734 5.5986C12.2537 5.70853 12.1864 5.85762 12.1864 6.01307C12.1864 6.16853 12.2537 6.31762 12.3734 6.42755C12.4931 6.53747 12.6555 6.59923 12.8248 6.59923H12.8465C14.0109 6.67543 14.8586 7.03181 15.4523 7.61679C16.0613 8.21936 16.3766 8.96846 16.3524 9.89459C16.3485 10.05 16.412 10.2006 16.529 10.313C16.6459 10.4255 16.8067 10.4906 16.976 10.4942C17.1454 10.4978 17.3093 10.4395 17.4317 10.3321C17.5542 10.2247 17.6252 10.077 17.6291 9.92155C17.6597 8.70587 17.2333 7.65665 16.3881 6.81962V6.81728C15.5238 5.96618 14.3377 5.51602 12.9103 5.42809L12.8886 5.42575L12.8248 5.42692ZM12.8005 7.39054C12.7151 7.38362 12.629 7.39257 12.5475 7.41687C12.4659 7.44117 12.3905 7.48031 12.3257 7.53196C12.261 7.58361 12.2083 7.64671 12.1707 7.71749C12.1331 7.78827 12.1114 7.86528 12.1069 7.94392C12.1025 8.02256 12.1153 8.10123 12.1447 8.17521C12.1741 8.24919 12.2194 8.31698 12.2779 8.37453C12.3365 8.43208 12.407 8.47821 12.4854 8.51016C12.5638 8.54211 12.6484 8.55923 12.7342 8.5605C13.2678 8.58629 13.6087 8.734 13.8232 8.93212C14.039 9.13141 14.1998 9.45145 14.2292 9.95203C14.2308 10.0307 14.2496 10.1083 14.2845 10.1801C14.3195 10.2519 14.3698 10.3166 14.4325 10.3702C14.4952 10.4238 14.5691 10.4652 14.6496 10.4921C14.7301 10.5189 14.8157 10.5306 14.9013 10.5265C14.9869 10.5223 15.0706 10.5023 15.1476 10.4678C15.2246 10.4333 15.2932 10.3849 15.3494 10.3255C15.4056 10.2661 15.4482 10.1969 15.4746 10.1221C15.5011 10.0472 15.5108 9.96827 15.5034 9.8899C15.4625 9.18651 15.2225 8.56519 14.7309 8.10799C14.2368 7.65079 13.564 7.42805 12.8005 7.39054Z" fill="#FFDD29"/>
</svg>
